<svg id="visual" viewBox="0 0 900 600" width="900" height="600" xmlns="http://www.w3.org/2000/svg" xmlns:xlink="http://www.w3.org/1999/xlink" version="1.1"><rect x="0" y="0" width="900" height="600" fill="#87836b"></rect><path d="M0 354L25 346C50 338 100 322 150 325.3C200 328.7 250 351.3 300 351.3C350 351.3 400 328.7 450 311C500 293.3 550 280.7 600 286.8C650 293 700 318 750 329.5C800 341 850 339 875 338L900 337L900 601L875 601C850 601 800 601 750 601C700 601 650 601 600 601C550 601 500 601 450 601C400 601 350 601 300 601C250 601 200 601 150 601C100 601 50 601 25 601L0 601Z" fill="#0ec19f"></path><path d="M0 396L25 383.3C50 370.7 100 345.3 150 341.2C200 337 250 354 300 365.2C350 376.3 400 381.7 450 382C500 382.3 550 377.7 600 382.8C650 388 700 403 750 410.5C800 418 850 418 875 418L900 418L900 601L875 601C850 601 800 601 750 601C700 601 650 601 600 601C550 601 500 601 450 601C400 601 350 601 300 601C250 601 200 601 150 601C100 601 50 601 25 601L0 601Z" fill="#7ec895"></path><path d="M0 379L25 393.2C50 407.3 100 435.7 150 451.5C200 467.3 250 470.7 300 462.5C350 454.3 400 434.7 450 435.3C500 436 550 457 600 458C650 459 700 440 750 433.5C800 427 850 433 875 436L900 439L900 601L875 601C850 601 800 601 750 601C700 601 650 601 600 601C550 601 500 601 450 601C400 601 350 601 300 601C250 601 200 601 150 601C100 601 50 601 25 601L0 601Z" fill="#b1ce9c"></path><path d="M0 439L25 441.2C50 443.3 100 447.7 150 447.7C200 447.7 250 443.3 300 448.5C350 453.7 400 468.3 450 470.5C500 472.7 550 462.3 600 456.7C650 451 700 450 750 458.8C800 467.7 850 486.3 875 495.7L900 505L900 601L875 601C850 601 800 601 750 601C700 601 650 601 600 601C550 601 500 601 450 601C400 601 350 601 300 601C250 601 200 601 150 601C100 601 50 601 25 601L0 601Z" fill="#d4d5b1"></path><path d="M0 556L25 553C50 550 100 544 150 539.8C200 535.7 250 533.3 300 527.3C350 521.3 400 511.7 450 515.7C500 519.7 550 537.3 600 537.2C650 537 700 519 750 510.8C800 502.7 850 504.3 875 505.2L900 506L900 601L875 601C850 601 800 601 750 601C700 601 650 601 600 601C550 601 500 601 450 601C400 601 350 601 300 601C250 601 200 601 150 601C100 601 50 601 25 601L0 601Z" fill="#e8dfce"></path></svg>