<svg id="visual" viewBox="0 0 900 600" width="900" height="600" xmlns="http://www.w3.org/2000/svg" xmlns:xlink="http://www.w3.org/1999/xlink" version="1.1"><rect x="0" y="0" width="900" height="600" fill="#E2DDD5"></rect><path d="M0 444L21.5 444.7C43 445.3 86 446.7 128.8 450.3C171.7 454 214.3 460 257.2 462C300 464 343 462 385.8 462.5C428.7 463 471.3 466 514.2 454.2C557 442.3 600 415.7 642.8 406.2C685.7 396.7 728.3 404.3 771.2 417.8C814 431.3 857 450.7 878.5 460.3L900 470L900 601L878.5 601C857 601 814 601 771.2 601C728.3 601 685.7 601 642.8 601C600 601 557 601 514.2 601C471.3 601 428.7 601 385.8 601C343 601 300 601 257.2 601C214.3 601 171.7 601 128.8 601C86 601 43 601 21.5 601L0 601Z" fill="#87836b" stroke-linecap="round" stroke-linejoin="miter"></path></svg>