<svg id="visual" viewBox="0 0 900 600" width="900" height="600" xmlns="http://www.w3.org/2000/svg" xmlns:xlink="http://www.w3.org/1999/xlink" version="1.1"><rect x="0" y="0" width="900" height="600" fill="#87836b"></rect><path d="M0 52L21.5 49.5C43 47 86 42 128.8 44.8C171.7 47.7 214.3 58.3 257.2 64.8C300 71.3 343 73.7 385.8 72C428.7 70.3 471.3 64.7 514.2 60.7C557 56.7 600 54.3 642.8 56.3C685.7 58.3 728.3 64.7 771.2 71.8C814 79 857 87 878.5 91L900 95L900 0L878.5 0C857 0 814 0 771.2 0C728.3 0 685.7 0 642.8 0C600 0 557 0 514.2 0C471.3 0 428.7 0 385.8 0C343 0 300 0 257.2 0C214.3 0 171.7 0 128.8 0C86 0 43 0 21.5 0L0 0Z" fill="#E2DDD5" stroke-linecap="round" stroke-linejoin="miter"></path></svg>